<svg id="레이어_1" data-name="레이어 1" xmlns="http://www.w3.org/2000/svg" viewBox="0 0 248.67 30.55"><path d="M12.37,30.48V24.26c0-2.29-.82-3.5-2.38-3.5H7.63v9.71H0V.46H7.63V11.39h2c1.36,0,2.31-1.32,2.31-3.75V.46h7.63V9a11.58,11.58,0,0,1-1.74,6.33,11.12,11.12,0,0,1,2.23,7.29v7.83Z" transform="translate(0 -0.26)"/><path d="M24,30.48V.46h7.89v30Z" transform="translate(0 -0.26)"/><path d="M51.22,30.48V13c0-2.21-.18-3-1.62-3.09v20.6H44.15V9.88C42.84,10,42.56,11,42.56,13V30.48H35.49V12C35.49,3.26,38.07.26,44.25.26h5.56c6.25,0,8.53,2.57,8.53,11.73V30.48Z" transform="translate(0 -0.26)"/><path d="M72.73,30.48H61.49V.48H73.13c6.12,0,8.48,5.3,8.48,12v4.78C81.61,25.66,79.22,30.48,72.73,30.48ZM74,13c0-1.36-.57-2.76-2.26-2.76H69V20.59h2.46c2.07,0,2.46-1.47,2.46-3.06Z" transform="translate(0 -0.26)"/><path d="M96.47,30.63H93.78c-7.38,0-9.1-2.8-9.1-12.91V13.19C84.73,3.11,86.4.26,93.78.26h2.69c6.84,0,9.2,2.83,9.2,12.91V17.7C105.67,27.83,103.82,30.63,96.47,30.63ZM98,13.38c0-2.1-.54-3.46-2.41-3.46h-1c-1.51,0-2.4.84-2.4,3.46v4c0,2.58.53,3.49,2.4,3.49h1c1.87,0,2.41-1.43,2.41-3.49Z" transform="translate(0 -0.26)"/><path d="M124.65,30.81c-3.3,0-5-3.23-6.14-7.46l-2.46-9.46c0-.33-.13-.44-.21-.44s-.15.15-.15.48V30.48h-7.07V9.37c0-6,2.48-9.09,5.94-9.09,3.69,0,5.1,3.24,5.82,6.22l2.56,10.63c0,.4.1.51.25.51s.21-.11.21-.51V.54h7.1v21C130.5,28,128.27,30.81,124.65,30.81Z" transform="translate(0 -0.26)"/><path d="M146.54,11.68c0-1.25-.39-1.91-1.51-1.91h-2.1c-1.54,0-2,.74-2,3.39v4.63c0,3,.67,3.35,2.28,3.35h2.31c.79,0,1.1-.66,1.1-1.36v-.7h-3.77V12.86H154.1v6.59c0,7.72-1.9,11.22-7.48,11.22h-4.69c-6.87,0-8.59-3.57-8.59-12.88V13.16c0-9.39,1.52-12.88,8.33-12.88h4.48c6.13,0,8,3.05,8,11.4Z" transform="translate(0 -0.26)"/><path d="M169.78,11.68c0-1.25-.38-1.91-1.51-1.91h-2.1c-1.54,0-2,.74-2,3.39v4.63c0,3,.67,3.35,2.28,3.35h2.28c.79,0,1.1-.66,1.1-1.36v-.7h-3.77V12.86h11.25v6.59c0,7.72-1.89,11.22-7.48,11.22h-4.66c-6.87,0-8.59-3.57-8.59-12.88V13.16c0-9.39,1.52-12.88,8.33-12.88h4.49c6.12,0,8,3.05,8,11.4Z" transform="translate(0 -0.26)"/><path d="M187.92,30.48c-6.1,0-7.86-4.63-7.86-11.4v-5.7c0-7.62,1.12-12.92,7.94-12.92h12V10H189.36c-1,0-1.46.48-1.62,2h11.38V19H187.73c0,1.36.2,2,1.64,2h10.68v9.42Z" transform="translate(0 -0.26)"/><path d="M214.65,30.63H212c-7.38,0-9.1-2.8-9.1-12.91V13.19c0-10.08,1.72-12.91,9.1-12.91h2.69c6.84,0,9.19,2.83,9.19,12.91v4.53C223.84,27.83,222,30.63,214.65,30.63Zm1.56-17.25c0-2.1-.54-3.46-2.41-3.46h-1c-1.51,0-2.41.84-2.41,3.46v4c0,2.58.54,3.49,2.41,3.49h1c1.87,0,2.41-1.43,2.41-3.49Z" transform="translate(0 -0.26)"/><path d="M242.83,30.81c-3.3,0-5-3.23-6.15-7.46l-2.46-9.46c-.05-.33-.12-.44-.2-.44s-.16.15-.16.48V30.48h-7.07V9.37c0-6,2.49-9.09,6-9.09,3.69,0,5.1,3.24,5.81,6.22l2.57,10.63c0,.4.1.51.25.51s.21-.11.21-.51V.54h7.09v21C248.67,28,246.44,30.81,242.83,30.81Z" transform="translate(0 -0.26)"/></svg>