<?xml version="1.0" encoding="utf-8"?>
<!-- Generator: Adobe Illustrator 25.4.0, SVG Export Plug-In . SVG Version: 6.00 Build 0)  -->
<svg version="1.1" id="레이어_1" xmlns="http://www.w3.org/2000/svg" xmlns:xlink="http://www.w3.org/1999/xlink" x="0px"
	 y="0px" width="248.7px" height="30.5px" viewBox="0 0 248.7 30.5" style="enable-background:new 0 0 248.7 30.5;"
	 xml:space="preserve">
<path d="M12.4,30.5v-6.2c0-2.3-0.8-3.5-2.4-3.5H7.6v9.7H0v-30h7.6v10.9h2c1.4,0,2.3-1.3,2.3-3.8V0.5h7.6V9c0,2.2-0.6,4.4-1.7,6.3
	c1.6,2.1,2.4,4.7,2.2,7.3v7.8H12.4z"/>
<path d="M24,30.5v-30h7.9v30L24,30.5z"/>
<path d="M51.2,30.5V13c0-2.2-0.2-3-1.6-3.1v20.6h-5.5V9.9C42.8,10,42.6,11,42.6,13v17.5h-7.1V12c0-8.8,2.6-11.8,8.8-11.8h5.6
	c6.3,0,8.5,2.6,8.5,11.7v18.5H51.2z"/>
<path d="M72.7,30.5H61.5v-30h11.6c6.1,0,8.5,5.3,8.5,12v4.8C81.6,25.7,79.2,30.5,72.7,30.5z M74,13c0-1.4-0.6-2.8-2.3-2.8H69v10.3
	h2.5c2.1,0,2.5-1.5,2.5-3.1L74,13z"/>
<path d="M96.5,30.6h-2.7c-7.4,0-9.1-2.8-9.1-12.9v-4.5c0-10.1,1.7-12.9,9.1-12.9h2.7c6.8,0,9.2,2.8,9.2,12.9v4.5
	C105.7,27.8,103.8,30.6,96.5,30.6z M98,13.4c0-2.1-0.5-3.5-2.4-3.5h-1c-1.5,0-2.4,0.8-2.4,3.5v4c0,2.6,0.5,3.5,2.4,3.5h1
	c1.9,0,2.4-1.4,2.4-3.5V13.4z"/>
<path d="M124.7,30.8c-3.3,0-5-3.2-6.1-7.5l-2.5-9.5c0-0.3-0.1-0.4-0.2-0.4s-0.2,0.1-0.2,0.5v16.5h-7.1V9.4c0-6,2.5-9.1,5.9-9.1
	c3.7,0,5.1,3.2,5.8,6.2l2.6,10.6c0.1,0.4,0.1,0.5,0.3,0.5s0.2-0.1,0.2-0.5V0.5h7.1v21C130.5,28,128.3,30.8,124.7,30.8z"/>
<path d="M146.5,11.7c0-1.3-0.4-1.9-1.5-1.9h-2.1c-1.5,0-2,0.7-2,3.4v4.6c0,3,0.7,3.4,2.3,3.4h2.3c0.8,0,1.1-0.7,1.1-1.4v-0.7h-3.8
	v-6.2h11.3v6.6c0,7.7-1.9,11.2-7.5,11.2h-4.7c-6.9,0-8.6-3.6-8.6-12.9v-4.6c0-9.4,1.5-12.9,8.3-12.9h4.5c6.1,0,8,3,8,11.4
	L146.5,11.7z"/>
<path d="M169.8,11.7c0-1.3-0.4-1.9-1.5-1.9h-2.1c-1.5,0-2,0.7-2,3.4v4.6c0,3,0.7,3.4,2.3,3.4h2.3c0.8,0,1.1-0.7,1.1-1.4v-0.7h-3.8
	v-6.2h11.3v6.6c0,7.7-1.9,11.2-7.5,11.2h-4.7c-6.9,0-8.6-3.6-8.6-12.9v-4.6c0-9.4,1.5-12.9,8.3-12.9h4.5c6.1,0,8,3,8,11.4
	L169.8,11.7z"/>
<path d="M187.9,30.5c-6.1,0-7.9-4.6-7.9-11.4v-5.7c0-7.6,1.1-12.9,7.9-12.9h12V10h-10.6c-1,0-1.5,0.5-1.6,2h11.4V19h-11.4
	c0,1.4,0.2,2,1.6,2h10.7v9.4L187.9,30.5z"/>
<path d="M214.6,30.6H212c-7.4,0-9.1-2.8-9.1-12.9v-4.5c0-10.1,1.7-12.9,9.1-12.9h2.7c6.8,0,9.2,2.8,9.2,12.9v4.5
	C223.8,27.8,222,30.6,214.6,30.6z M216.2,13.4c0-2.1-0.5-3.5-2.4-3.5h-1c-1.5,0-2.4,0.8-2.4,3.5v4c0,2.6,0.5,3.5,2.4,3.5h1
	c1.9,0,2.4-1.4,2.4-3.5V13.4z"/>
<path d="M242.8,30.8c-3.3,0-5-3.2-6.1-7.5l-2.5-9.5c-0.1-0.3-0.1-0.4-0.2-0.4s-0.2,0.1-0.2,0.5v16.5h-7.1V9.4c0-6,2.5-9.1,5.9-9.1
	c3.7,0,5.1,3.2,5.8,6.2l2.6,10.6c0.1,0.4,0.1,0.5,0.3,0.5s0.2-0.1,0.2-0.5V0.5h7.1v21C248.7,28,246.4,30.8,242.8,30.8z"/>
</svg>
