<svg id="레이어_1" data-name="레이어 1" xmlns="http://www.w3.org/2000/svg" viewBox="0 0 248.68 30.53"><path d="M12.64,30.22V24c0-2.29-.82-3.5-2.38-3.5H7.9v9.71H.27V.2H7.9V11.13h2c1.36,0,2.31-1.32,2.31-3.75V.2h7.63V8.77a11.61,11.61,0,0,1-1.74,6.33,11.11,11.11,0,0,1,2.23,7.29v7.83Z" transform="translate(-0.27 -0.02)"/><path d="M24.23,30.22V.2h7.89v30Z" transform="translate(-0.27 -0.02)"/><path d="M51.49,30.22V12.71c0-2.21-.18-3-1.62-3.09v20.6H44.42V9.62c-1.31.15-1.59,1.14-1.59,3.09V30.22H35.76V11.75C35.76,3,38.34,0,44.52,0h5.56c6.25,0,8.53,2.57,8.53,11.73V30.22Z" transform="translate(-0.27 -0.02)"/><path d="M73,30.22H61.76l0-30H73.4c6.12,0,8.48,5.3,8.48,12V17C81.88,25.4,79.49,30.22,73,30.22Zm1.26-17.47c0-1.36-.57-2.76-2.26-2.76H69.3V20.33h2.46c2.07,0,2.46-1.47,2.46-3.06Z" transform="translate(-0.27 -0.02)"/><path d="M96.74,30.37H94.05c-7.38,0-9.1-2.8-9.1-12.91V12.93C85,2.85,86.67,0,94.05,0h2.69c6.84,0,9.2,2.83,9.2,12.91v4.53C105.94,27.57,104.09,30.37,96.74,30.37ZM98.3,13.12c0-2.1-.54-3.46-2.41-3.46h-1c-1.51,0-2.4.84-2.4,3.46v4c0,2.58.53,3.49,2.4,3.49h1c1.87,0,2.41-1.43,2.41-3.49Z" transform="translate(-0.27 -0.02)"/><path d="M124.92,30.55c-3.3,0-5-3.23-6.14-7.46l-2.46-9.46c0-.33-.13-.44-.21-.44s-.15.15-.15.48V30.22h-7.07V9.11c0-6,2.48-9.09,5.94-9.09,3.69,0,5.1,3.24,5.82,6.22l2.56,10.63c.05.4.1.51.25.51s.21-.11.21-.51V.28h7.1v21C130.77,27.72,128.54,30.55,124.92,30.55Z" transform="translate(-0.27 -0.02)"/><path d="M146.81,11.42c0-1.25-.39-1.91-1.51-1.91h-2.1c-1.54,0-2,.74-2,3.39v4.63c0,3,.67,3.35,2.28,3.35h2.31c.79,0,1.1-.66,1.1-1.36v-.7h-3.77V12.6h11.25v6.59c0,7.72-1.9,11.22-7.48,11.22H142.2c-6.87,0-8.59-3.57-8.59-12.88V12.9c0-9.39,1.52-12.88,8.33-12.88h4.48c6.13,0,8,3.05,8,11.4Z" transform="translate(-0.27 -0.02)"/><path d="M170.05,11.42c0-1.25-.38-1.91-1.51-1.91h-2.1c-1.54,0-2,.74-2,3.39v4.63c0,3,.67,3.35,2.28,3.35H169c.79,0,1.1-.66,1.1-1.36v-.7h-3.77V12.6h11.25v6.59c0,7.72-1.89,11.22-7.48,11.22h-4.66c-6.87,0-8.59-3.57-8.59-12.88V12.9c0-9.39,1.52-12.88,8.33-12.88h4.49c6.12,0,8,3.05,8,11.4Z" transform="translate(-0.27 -0.02)"/><path d="M188.19,30.22c-6.1,0-7.86-4.63-7.86-11.4v-5.7C180.33,5.5,181.45.2,188.27.2h12V9.69H189.63c-1,0-1.46.48-1.62,2h11.38v7.06H188c0,1.36.2,2,1.64,2h10.68v9.42Z" transform="translate(-0.27 -0.02)"/><path d="M214.92,30.37h-2.69c-7.38,0-9.1-2.8-9.1-12.91V12.93c0-10.08,1.72-12.91,9.1-12.91h2.69c6.84,0,9.19,2.83,9.19,12.91v4.53C224.11,27.57,222.27,30.37,214.92,30.37Zm1.56-17.25c0-2.1-.54-3.46-2.41-3.46h-1c-1.51,0-2.41.84-2.41,3.46v4c0,2.58.54,3.49,2.41,3.49h1c1.87,0,2.41-1.43,2.41-3.49Z" transform="translate(-0.27 -0.02)"/><path d="M243.1,30.55c-3.3,0-5-3.23-6.15-7.46l-2.46-9.46c-.05-.33-.12-.44-.2-.44s-.16.15-.16.48V30.22h-7.07V9.11c0-6,2.49-9.09,5.95-9.09,3.69,0,5.1,3.24,5.81,6.22l2.57,10.63c.05.4.1.51.25.51s.21-.11.21-.51V.28h7.09v21C248.94,27.72,246.71,30.55,243.1,30.55Z" transform="translate(-0.27 -0.02)"/></svg>